<?xml version="1.0" ?>
<!-- Uploaded to: SVG Repo, www.svgrepo.com, Generator: SVG Repo Mixer Tools -->
<svg width="800px" height="800px" viewBox="0 0 64 64" id="svg5" version="1.1" xml:space="preserve" xmlns="http://www.w3.org/2000/svg" xmlns:svg="http://www.w3.org/2000/svg">
<defs id="defs2"/>
<g id="layer1" transform="translate(-288)">
<path d="m 298.01356,9 h 49 v 6 h -49 z" id="path10691" style="fill:#3e4f59;fill-opacity:1;fill-rule:evenodd;stroke-width:2;stroke-linecap:round;stroke-linejoin:round;stroke-miterlimit:4.1"/>
<path d="m 298.01356,15 h 49 v 40 h -49 z" id="path10693" style="fill:#acbec2;fill-opacity:1;fill-rule:evenodd;stroke-width:2.00001;stroke-linecap:round;stroke-linejoin:round;stroke-miterlimit:4.1"/>
<path d="m 298.01356,15 v 40 h 29.76953 a 28.484051,41.392605 35.599482 0 0 18.625,-40 z" id="path10695" style="fill:#e8edee;fill-opacity:1;fill-rule:evenodd;stroke:none;stroke-width:2.00002;stroke-linecap:round;stroke-linejoin:round;stroke-miterlimit:4.1"/>
<path d="m 300.01356,8 c -1.64501,0 -3,1.3549933 -3,3 v 40 c 0,0.552285 0.44772,1 1,1 0.55228,0 1,-0.447715 1,-1 V 11 c 0,-0.564128 0.43587,-1 1,-1 h 45 c 0.56413,0 1,0.435872 1,1 v 3 h -42 c -0.55228,0 -1,0.447715 -1,1 0,0.552285 0.44772,1 1,1 h 42 v 37 c 0,0.564127 -0.43587,1 -1,1 h -49 c -0.55228,0 -1,0.447715 -1,1 0,0.552285 0.44772,1 1,1 h 49 c 1.64501,0 3,-1.354994 3,-3 0,-14 0,-28 0,-42 0,-1.6450067 -1.35499,-3 -3,-3 z" id="path10697" style="color:#000000;fill:#000000;fill-rule:evenodd;stroke-linecap:round;stroke-linejoin:round;stroke-miterlimit:4.1"/>
<path d="m 343.01356,11 c -0.55228,0 -1,0.447715 -1,1 0,0.552285 0.44772,1 1,1 0.55228,0 1,-0.447715 1,-1 0,-0.552285 -0.44772,-1 -1,-1 z" id="path10699" style="color:#000000;fill:#ed7161;fill-opacity:1;fill-rule:evenodd;stroke-linecap:round;stroke-linejoin:round;stroke-miterlimit:4.1;-inkscape-stroke:none"/>
<path d="m 339.01356,11 c -0.55228,0 -1,0.447715 -1,1 0,0.552285 0.44772,1 1,1 0.55228,0 1,-0.447715 1,-1 0,-0.552285 -0.44772,-1 -1,-1 z" id="path10701" style="color:#000000;fill:#ecba16;fill-opacity:1;fill-rule:evenodd;stroke-linecap:round;stroke-linejoin:round;stroke-miterlimit:4.1;-inkscape-stroke:none"/>
<path d="m 335.01356,11 c -0.55228,0 -1,0.447715 -1,1 0,0.552285 0.44772,1 1,1 0.55228,0 1,-0.447715 1,-1 0,-0.552285 -0.44772,-1 -1,-1 z" id="path10703" style="color:#000000;fill:#42b05c;fill-opacity:1;fill-rule:evenodd;stroke-linecap:round;stroke-linejoin:round;stroke-miterlimit:4.1;-inkscape-stroke:none"/>
<path d="m 293.01356,54 a 1,1 0 0 0 -1,1 1,1 0 0 0 1,1 1,1 0 0 0 1,-1 1,1 0 0 0 -1,-1 z" id="path10705" style="color:#000000;fill:#000000;fill-rule:evenodd;stroke-linecap:round;stroke-linejoin:round;stroke-miterlimit:4.1;-inkscape-stroke:none"/>
<path d="m 301.01356,14 c -0.55228,0 -1,0.447715 -1,1 0,0.552285 0.44772,1 1,1 0.55228,0 1,-0.447715 1,-1 0,-0.552285 -0.44772,-1 -1,-1 z" id="path10707" style="color:#000000;fill:#000000;fill-rule:evenodd;stroke-linecap:round;stroke-linejoin:round;stroke-miterlimit:4.1;-inkscape-stroke:none"/>
<path d="m 316.88412,26.91308 c 0,3.2657 -5.8841,11.08704 -5.8841,11.08704 0,0 -5.8841,-7.82134 -5.8841,-11.08704 0,-3.26571 2.63441,-5.91308 5.8841,-5.91308 3.24971,0 5.8841,2.64737 5.8841,5.91308 z" id="circle4349-6" style="fill:#ffa221;fill-opacity:1;fill-rule:evenodd;stroke:none;stroke-width:2;stroke-linecap:round;stroke-linejoin:round;stroke-miterlimit:4.1"/>
<path d="m 306.9082,22.666019 c -1.10454,1.074915 -1.79297,2.578884 -1.79296,4.24609 -10e-6,3.265698 5.88476,11.087888 5.88476,11.087888 0,0 3.18368,-4.231434 4.86719,-7.769524 a 11.109423,8.6638424 50.183351 0 0 -0.81055,-1.531253 11.109423,8.6638424 50.183351 0 0 -8.14844,-6.033201 z" id="path24473" style="fill:#ffc343;fill-opacity:1;fill-rule:evenodd;stroke:none;stroke-width:2;stroke-linecap:round;stroke-linejoin:round;stroke-miterlimit:4.1;stroke-opacity:1"/>
<path d="m 311,24 c -1.64501,1e-6 -3,1.354993 -3,3 0,1.645007 1.35499,2.999999 3,3 1.64501,-1e-6 3,-1.354993 3,-3 0,-1.645007 -1.35499,-2.999999 -3,-3 z m 0,2 c 0.56413,0 1,0.435871 1,1 0,0.564129 -0.43587,1 -1,1 -0.56413,0 -1,-0.435871 -1,-1 0,-0.564129 0.43587,-1 1,-1 z" id="path4647" style="color:#000000;fill:#000000;fill-rule:evenodd;stroke-linecap:round;stroke-linejoin:round;stroke-miterlimit:4.1;-inkscape-stroke:none"/>
<path d="m 341.88412,38.91302 c 0,3.2657 -5.8841,11.08704 -5.8841,11.08704 0,0 -5.8841,-7.82134 -5.8841,-11.08704 0,-3.26571 2.63441,-5.91308 5.8841,-5.91308 3.24971,0 5.8841,2.64737 5.8841,5.91308 z" id="path34906" style="fill:#fe73c5;fill-opacity:1;fill-rule:evenodd;stroke:none;stroke-width:2;stroke-linecap:round;stroke-linejoin:round;stroke-miterlimit:4.1"/>
<path d="m 331.45507,35.156247 c -0.8373,1.021508 -1.33983,2.329098 -1.33984,3.755863 10e-6,3.265695 5.88477,11.087888 5.88477,11.087888 0,0 2.54257,-3.387468 4.28515,-6.634765 a 10.5,7.5 60 0 0 -1.03906,-2.208987 10.5,7.5 60 0 0 -7.79102,-5.999999 z" id="path24615" style="fill:#fe93d3;fill-opacity:1;fill-rule:evenodd;stroke:none;stroke-width:2;stroke-linecap:round;stroke-linejoin:round;stroke-miterlimit:4.1;stroke-opacity:1"/>
<path d="m 336,36 c -1.64501,10e-7 -3,1.354993 -3,3 0,1.645007 1.35499,2.999999 3,3 1.64501,-10e-7 3,-1.354993 3,-3 0,-1.645007 -1.35499,-2.999999 -3,-3 z m 0,2 c 0.56413,0 1,0.435871 1,1 0,0.564129 -0.43587,1 -1,1 -0.56413,0 -1,-0.435871 -1,-1 0,-0.564129 0.43587,-1 1,-1 z" id="path4641" style="color:#000000;fill:#000000;fill-rule:evenodd;stroke-linecap:round;stroke-linejoin:round;stroke-miterlimit:4.1"/>
<path d="m 311,20 c -3.79279,0 -6.88477,3.108619 -6.88477,6.912109 0,1.11672 0.43271,2.279572 1.01172,3.53125 0.57902,1.251681 1.3329,2.56193 2.08203,3.765625 1.49832,2.407395 2.99219,4.392579 2.99219,4.392578 0.16023,0.208227 0.39596,0.345038 0.65625,0.38086 C 310.89397,38.993295 310.93778,39 311,39 h 11 c 1.11641,0 2,0.883591 2,2 0,1.116409 -0.88359,2 -2,2 h -14 c -2.19729,0 -4,1.80271 -4,4 0,2.19729 1.80271,4 4,4 h 8.23438 c 0.55226,0 1,-0.447717 1,-1 0,-0.552283 -0.44774,-1 -1,-1 H 308 c -1.11641,0 -2,-0.883591 -2,-2 0,-1.116409 0.88359,-2 2,-2 h 14 c 2.19729,0 4,-1.80271 4,-4 0,-2.19729 -1.80271,-4 -4,-4 h -9.05664 c 0.53367,-0.76626 1.18107,-1.719992 1.84766,-2.791016 0.74913,-1.203695 1.50301,-2.513944 2.08203,-3.765625 0.57901,-1.251678 1.01172,-2.41453 1.01172,-3.53125 0,-0.904977 -0.17509,-1.773291 -0.49219,-2.568359 -0.20452,-0.512807 -0.78592,-0.762853 -1.29883,-0.558594 -0.51281,0.204521 -0.76285,0.785919 -0.55859,1.298828 0.22505,0.564287 0.34961,1.179065 0.34961,1.828125 0,0.516127 -0.30388,1.558114 -0.82813,2.691407 -0.52425,1.13329 -1.24102,2.388984 -1.96289,3.548828 -1.0452,1.679349 -1.59499,2.388836 -2.09375,3.074218 -0.49876,-0.685382 -1.04855,-1.394869 -2.09375,-3.074218 -0.72187,-1.159844 -1.43864,-2.415538 -1.96289,-3.548828 -0.52425,-1.133293 -0.82813,-2.17528 -0.82813,-2.691407 C 306.11523,24.1842 308.29341,22 311,22 c 0.78749,0 1.52532,0.185449 2.18164,0.515625 0.49299,0.24765 1.09341,0.04926 1.3418,-0.443359 0.24897,-0.493472 0.0504,-1.095333 -0.44336,-1.34375 C 313.15318,20.262216 312.10352,20 311,20 Z m 25,12 c -3.79279,0 -6.88477,3.108615 -6.88477,6.912109 0,1.116721 0.43271,2.27957 1.01172,3.53125 0.57902,1.251682 1.33289,2.561928 2.08203,3.765625 0.66659,1.071025 1.31399,2.024755 1.84766,2.791016 H 320 c -0.55228,0 -1,0.447717 -1,1 0,0.552283 0.44772,1 1,1 h 16 c 0.0622,0 0.10603,-0.0067 0.14258,-0.01758 a 1.0001,1.0001 0 0 0 0.65625,-0.38086 c 0,0 1.145,-1.52211 2.43164,-3.509765 a 1,1 0 0 0 -0.29688,-1.382813 1,1 0 0 0 -1.38281,0.296875 c -0.81899,1.265211 -1.12159,1.646957 -1.54492,2.230469 -0.49691,-0.682642 -1.05122,-1.3995 -2.09961,-3.083984 -0.72187,-1.159845 -1.43864,-2.415536 -1.96289,-3.548828 -0.52425,-1.133294 -0.82813,-2.17528 -0.82813,-2.691407 C 331.11523,36.184197 333.29341,34 336,34 c 2.70661,0 4.88477,2.184193 4.88477,4.912109 0,0.692492 -0.57445,2.288986 -1.42579,3.888672 a 1,1 0 0 0 0.41407,1.351563 1,1 0 0 0 1.35156,-0.41211 c 0.90852,-1.70715 1.66016,-3.329817 1.66016,-4.828125 C 342.88477,35.108619 339.7928,32 336,32 Z" id="path34910" style="color:#000000;fill:#000000;fill-rule:evenodd;stroke-linecap:round;stroke-linejoin:round;stroke-miterlimit:4.1"/>
</g>
</svg>