<?xml version="1.0" ?>
<!-- Uploaded to: SVG Repo, www.svgrepo.com, Generator: SVG Repo Mixer Tools -->
<svg width="800px" height="800px" viewBox="0 0 64 64" id="svg5" version="1.1" xml:space="preserve" xmlns="http://www.w3.org/2000/svg" xmlns:svg="http://www.w3.org/2000/svg">
<defs id="defs2"/>
<g id="layer1" transform="translate(-192,-384)">
<path d="m 202,393 h 49 v 6 h -49 z" id="path27047" style="fill:#3e4f59;fill-opacity:1;fill-rule:evenodd;stroke-width:2;stroke-linecap:round;stroke-linejoin:round;stroke-miterlimit:4.1"/>
<path d="m 202,399 h 49 v 40 h -49 z" id="path27049" style="fill:#acbec2;fill-opacity:1;fill-rule:evenodd;stroke-width:2.00001;stroke-linecap:round;stroke-linejoin:round;stroke-miterlimit:4.1"/>
<path d="m 202,399 v 40 h 29.76953 a 28.484051,41.392605 35.599482 0 0 18.625,-40 z" id="path27051" style="fill:#e8edee;fill-opacity:1;fill-rule:evenodd;stroke:none;stroke-width:2.00002;stroke-linecap:round;stroke-linejoin:round;stroke-miterlimit:4.1"/>
<path d="m 204,392 c -1.64501,0 -3,1.355 -3,3 v 40 c 0,0.55229 0.44772,1 1,1 0.55229,0 1,-0.44771 1,-1 v -40 c 0,-0.56413 0.43587,-1 1,-1 h 45 c 0.56413,0 1,0.43587 1,1 v 3 h -42 c -0.55228,0 -1,0.44772 -1,1 0,0.55229 0.44772,1 1,1 h 42 v 37 c 0,0.56413 -0.43587,1 -1,1 h -49 c -0.55228,0 -1,0.44772 -1,1 0,0.55229 0.44772,1 1,1 h 49 c 1.64501,0 3,-1.35499 3,-3 0,-14 0,-28 0,-42 0,-1.645 -1.35499,-3 -3,-3 z" id="path27053" style="color:#000000;fill:#000000;fill-rule:evenodd;stroke-linecap:round;stroke-linejoin:round;stroke-miterlimit:4.1"/>
<path d="m 247,395 c -0.55228,0 -1,0.44772 -1,1 0,0.55229 0.44772,1 1,1 0.55229,0 1,-0.44771 1,-1 0,-0.55228 -0.44771,-1 -1,-1 z" id="path27055" style="color:#000000;fill:#ed7161;fill-opacity:1;fill-rule:evenodd;stroke-linecap:round;stroke-linejoin:round;stroke-miterlimit:4.1;-inkscape-stroke:none"/>
<path d="m 243,395 c -0.55228,0 -1,0.44772 -1,1 0,0.55229 0.44772,1 1,1 0.55229,0 1,-0.44771 1,-1 0,-0.55228 -0.44771,-1 -1,-1 z" id="path27057" style="color:#000000;fill:#ecba16;fill-opacity:1;fill-rule:evenodd;stroke-linecap:round;stroke-linejoin:round;stroke-miterlimit:4.1;-inkscape-stroke:none"/>
<path d="m 239,395 c -0.55228,0 -1,0.44772 -1,1 0,0.55229 0.44772,1 1,1 0.55229,0 1,-0.44771 1,-1 0,-0.55228 -0.44771,-1 -1,-1 z" id="path27059" style="color:#000000;fill:#42b05c;fill-opacity:1;fill-rule:evenodd;stroke-linecap:round;stroke-linejoin:round;stroke-miterlimit:4.1;-inkscape-stroke:none"/>
<path d="m 197,438 a 1,1 0 0 0 -1,1 1,1 0 0 0 1,1 1,1 0 0 0 1,-1 1,1 0 0 0 -1,-1 z" id="path27061" style="color:#000000;fill:#000000;fill-rule:evenodd;stroke-linecap:round;stroke-linejoin:round;stroke-miterlimit:4.1;-inkscape-stroke:none"/>
<path d="m 205,398 c -0.55228,0 -1,0.44772 -1,1 0,0.55229 0.44772,1 1,1 0.55229,0 1,-0.44771 1,-1 0,-0.55228 -0.44771,-1 -1,-1 z" id="path27063" style="color:#000000;fill:#000000;fill-rule:evenodd;stroke-linecap:round;stroke-linejoin:round;stroke-miterlimit:4.1;-inkscape-stroke:none"/>
<path d="m 213.99999,413 h 25.00002 a 3,3 0 0 1 3,3 v 15 a 3,3 0 0 1 -3,3 h -25.00002 a 3,3 0 0 1 -3,-3 v -15 a 3,3 0 0 1 3,-3 z" id="rect4378" style="fill:#ffa221;fill-opacity:1;fill-rule:evenodd;stroke:none;stroke-width:2;stroke-linecap:round;stroke-linejoin:round;stroke-miterlimit:4.1"/>
<path d="m 214,413 a 3,3 7.0704046 0 0 -3,3 v 15 a 3,3 7.0704046 0 0 3,3 h 25 a 3,3 7.0704046 0 0 3,-3 v -5.12305 a 22.2456,17.544133 24.085648 0 0 -13.35351,-12.80469 22.2456,17.544133 24.085648 0 0 -0.19532,-0.0723 z" id="path23292" style="fill:#ffc343;fill-opacity:1;fill-rule:evenodd;stroke:none;stroke-width:2;stroke-linecap:round;stroke-linejoin:round;stroke-miterlimit:4.1"/>
<path d="m 214,413 c -1.60343,0 -2.9094,1.25898 -2.99219,2.8418 l 8.99414,15.16015 -5.17578,2.97461 H 224 L 242,424 v -5.64062 L 224.24219,428.56445 215.07227,413 Z" id="rect5959-3" style="fill:#0588e2;fill-opacity:1;fill-rule:evenodd;stroke:none;stroke-width:1.99999;stroke-linecap:round;stroke-linejoin:round;stroke-miterlimit:4.1"/>
<path d="m 214,412 c -2.19729,0 -4,1.80271 -4,4 v 6.98438 c 0,0.55228 0.44772,0.99999 1,1 0.55228,0 1,-0.44772 1,-1 v -3.76172 L 218.63281,430.6582 214.55859,433 H 214 c -1.11641,0 -2,-0.88359 -2,-2 v -4 c 0,-0.55228 -0.44772,-1 -1,-1 -0.55228,0 -1,0.44772 -1,1 v 4 c 0,2.19729 1.80271,4 4,4 h 25 c 2.19729,0 4,-1.80271 4,-4 0,-0.55228 -0.44772,-1 -1,-1 -0.55228,0 -1,0.44772 -1,1 0,1.11641 -0.88359,2 -2,2 H 227.86719 L 241,425.7207 V 427 c 0,0.55228 0.44772,1 1,1 0.55228,0 1,-0.44772 1,-1 v -11 c 0,-2.19729 -1.80271,-4 -4,-4 z m 0,2 h 0.62305 l 8.7539,15.08984 c 0.27637,0.47632 0.8858,0.63959 1.36328,0.36524 l 7.74219,-4.44922 c 0.47896,-0.27505 0.64423,-0.88631 0.36914,-1.36524 -0.2751,-0.48012 -0.88782,-0.64556 -1.36718,-0.36914 l -6.87696,3.95313 L 216.93555,414 H 239 c 1.11641,0 2,0.88359 2,2 v 1.80469 l -6.23828,3.58398 c -0.47896,0.27505 -0.64423,0.88631 -0.36914,1.36524 0.27505,0.47895 0.8863,0.64422 1.36523,0.36914 L 241,420.11133 v 3.32226 L 223.74023,433 h -5.16796 L 220.5,431.89258 c 0.48054,-0.27586 0.64521,-0.88984 0.36719,-1.36914 l -8.76953,-15.11719 C 212.34793,414.58808 213.09249,414 214,414 Z" id="rect5959" style="color:#000000;fill:#000000;fill-rule:evenodd;stroke-linecap:round;stroke-linejoin:round;stroke-miterlimit:4.1;-inkscape-stroke:none"/>
<path d="m 234.00001,409.91308 c 0,3.2657 -5.88409,11.08704 -5.88409,11.08704 0,0 -5.8841,-7.82134 -5.8841,-11.08704 0,-3.26571 2.6344,-5.91308 5.8841,-5.91308 3.2497,0 5.88409,2.64737 5.88409,5.91308 z" id="circle4349" style="fill:#fe73c5;fill-opacity:1;fill-rule:evenodd;stroke:none;stroke-width:2;stroke-linecap:round;stroke-linejoin:round;stroke-miterlimit:4.1"/>
<path d="m 223.91211,405.77734 c -1.03916,1.06638 -1.67969,2.52432 -1.67969,4.13477 0,3.2657 5.88281,11.08789 5.88281,11.08789 0,0 1.95197,-2.59535 3.60743,-5.41992 a 9.8188152,9.834981 0 0 0 0.0117,-0.17383 9.8188152,9.834981 0 0 0 -7.82227,-9.62891 z" id="path19755" style="fill:#fe93d3;fill-opacity:1;fill-rule:evenodd;stroke-width:2;stroke-linecap:round;stroke-linejoin:round;stroke-miterlimit:4.1"/>
<path d="m 228.11523,407 c -1.645,0 -2.99999,1.35499 -3,3 1e-5,1.64501 1.355,3 3,3 1.64501,0 3,-1.35499 3,-3 0,-1.64501 -1.35499,-3 -3,-3 z m 0,2 c 0.56413,0 1,0.43587 1,1 0,0.56413 -0.43587,1 -1,1 -0.56412,0 -1,-0.43587 -1,-1 0,-0.56413 0.43588,-1 1,-1 z" id="path28977" style="color:#000000;fill:#000000;fill-rule:evenodd;stroke-linecap:round;stroke-linejoin:round;stroke-miterlimit:4.1;-inkscape-stroke:none"/>
<path d="m 228.11523,403 c -3.79279,0 -6.88281,3.10861 -6.88281,6.91211 0,1.11672 0.4327,2.27957 1.01172,3.53125 0.57902,1.25168 1.33092,2.56193 2.08008,3.76562 1.49832,2.4074 2.99219,4.39258 2.99219,4.39258 a 1.0001,1.0001 0 0 0 1.59765,0 c 0,0 1.49388,-1.98518 2.99219,-4.39258 0.74916,-1.20369 1.50302,-2.51394 2.08203,-3.76562 0.57902,-1.25168 1.01172,-2.41453 1.01172,-3.53125 0,-1.87192 -0.74709,-3.58083 -1.95703,-4.82617 a 1,1 0 0 0 -1.41406,-0.0215 1,1 0 0 0 -0.0195,1.41407 c 0.86108,0.88627 1.39063,2.09102 1.39063,3.43359 0,0.51613 -0.30192,1.55811 -0.82617,2.69141 -0.52425,1.13329 -1.24298,2.38898 -1.96485,3.54882 -1.04474,1.67863 -1.59473,2.3865 -2.09375,3.07227 -0.49906,-0.68584 -1.04714,-1.39378 -2.09179,-3.07227 -0.72187,-1.15984 -1.44059,-2.41553 -1.96485,-3.54882 -0.52425,-1.1333 -0.82617,-2.17528 -0.82617,-2.69141 0,-2.72792 2.17622,-4.91211 4.88281,-4.91211 a 1,1 0 0 0 1,-1 1,1 0 0 0 -1,-1 z" id="path28981" style="color:#000000;fill:#000000;fill-rule:evenodd;stroke-linecap:round;stroke-linejoin:round;stroke-miterlimit:4.1;-inkscape-stroke:none"/>
</g>
</svg>