<?xml version="1.0" ?>
<!-- Uploaded to: SVG Repo, www.svgrepo.com, Generator: SVG Repo Mixer Tools -->
<svg width="800px" height="800px" viewBox="0 0 64 64" id="svg5" version="1.1" xml:space="preserve" xmlns="http://www.w3.org/2000/svg" xmlns:svg="http://www.w3.org/2000/svg">
<defs id="defs2"/>
<g id="layer1" transform="translate(-384,-288)">
<path d="m 393.99999,297 h 49 v 6 h -49 z" id="path26993" style="fill:#3e4f59;fill-opacity:1;fill-rule:evenodd;stroke-width:2;stroke-linecap:round;stroke-linejoin:round;stroke-miterlimit:4.1"/>
<path d="m 393.99999,303 h 49 v 40 h -49 z" id="path26995" style="fill:#acbec2;fill-opacity:1;fill-rule:evenodd;stroke-width:2.00001;stroke-linecap:round;stroke-linejoin:round;stroke-miterlimit:4.1"/>
<path d="m 393.99999,303 v 40 h 29.76953 a 28.484051,41.392605 35.599482 0 0 18.625,-40 z" id="path26997" style="fill:#e8edee;fill-opacity:1;fill-rule:evenodd;stroke:none;stroke-width:2.00002;stroke-linecap:round;stroke-linejoin:round;stroke-miterlimit:4.1"/>
<path d="m 395.99999,296 c -1.64501,0 -3,1.355 -3,3 v 40 c 0,0.55229 0.44772,1 1,1 0.55229,0 1,-0.44771 1,-1 v -40 c 0,-0.56413 0.43587,-1 1,-1 h 45 c 0.56413,0 1,0.43587 1,1 v 3 h -42 c -0.55228,0 -1,0.44772 -1,1 0,0.55229 0.44772,1 1,1 h 42 v 37 c 0,0.56413 -0.43587,1 -1,1 h -49 c -0.55228,0 -1,0.44772 -1,1 0,0.55229 0.44772,1 1,1 h 49 c 1.64501,0 3,-1.35499 3,-3 0,-14 0,-28 0,-42 0,-1.645 -1.35499,-3 -3,-3 z" id="path26999" style="color:#000000;fill:#000000;fill-rule:evenodd;stroke-linecap:round;stroke-linejoin:round;stroke-miterlimit:4.1"/>
<path d="m 438.99999,299 c -0.55228,0 -1,0.44772 -1,1 0,0.55229 0.44772,1 1,1 0.55229,0 1,-0.44771 1,-1 0,-0.55228 -0.44771,-1 -1,-1 z" id="path27001" style="color:#000000;fill:#ed7161;fill-opacity:1;fill-rule:evenodd;stroke-linecap:round;stroke-linejoin:round;stroke-miterlimit:4.1;-inkscape-stroke:none"/>
<path d="m 434.99999,299 c -0.55228,0 -1,0.44772 -1,1 0,0.55229 0.44772,1 1,1 0.55229,0 1,-0.44771 1,-1 0,-0.55228 -0.44771,-1 -1,-1 z" id="path27003" style="color:#000000;fill:#ecba16;fill-opacity:1;fill-rule:evenodd;stroke-linecap:round;stroke-linejoin:round;stroke-miterlimit:4.1;-inkscape-stroke:none"/>
<path d="m 430.99999,299 c -0.55228,0 -1,0.44772 -1,1 0,0.55229 0.44772,1 1,1 0.55229,0 1,-0.44771 1,-1 0,-0.55228 -0.44771,-1 -1,-1 z" id="path27005" style="color:#000000;fill:#42b05c;fill-opacity:1;fill-rule:evenodd;stroke-linecap:round;stroke-linejoin:round;stroke-miterlimit:4.1;-inkscape-stroke:none"/>
<path d="m 388.99999,342 a 1,1 0 0 0 -1,1 1,1 0 0 0 1,1 1,1 0 0 0 1,-1 1,1 0 0 0 -1,-1 z" id="path27007" style="color:#000000;fill:#000000;fill-rule:evenodd;stroke-linecap:round;stroke-linejoin:round;stroke-miterlimit:4.1;-inkscape-stroke:none"/>
<path d="m 396.99999,302 c -0.55228,0 -1,0.44772 -1,1 0,0.55229 0.44772,1 1,1 0.55229,0 1,-0.44771 1,-1 0,-0.55228 -0.44771,-1 -1,-1 z" id="path27009" style="color:#000000;fill:#000000;fill-rule:evenodd;stroke-linecap:round;stroke-linejoin:round;stroke-miterlimit:4.1;-inkscape-stroke:none"/>
<path d="m 430.30441,323.88091 -1.41422,-8.48528 -2.12132,2.12131 -4.94974,-4.94974 a 2.0002,2.0002 0 0 0 -2.82843,0 l -2.82843,2.82843 -6.05874,-6.05874 a 2,2 0 0 0 -2.82843,0 2,2 0 0 0 0,2.82841 l 7.47296,7.47296 a 2.0002,2.0002 0 0 0 2.82843,10e-6 l 2.82843,-2.82843 3.53553,3.53553 -2.12132,2.12133 z" id="path11120" style="color:#000000;fill:#fe73c5;fill-opacity:1;fill-rule:evenodd;stroke:none;stroke-width:2;stroke-linecap:round;stroke-linejoin:round;stroke-miterlimit:4.1;stroke-dasharray:none;stroke-opacity:1"/>
<path d="m 420.0918,312.00586 a 2.0002,2.0002 0 0 0 -1.10157,0.56055 l -2.16992,2.17187 A 14.5,11.5 0 0 0 416.5,317 a 14.5,11.5 0 0 0 0.52734,3.01953 2.0002,2.0002 0 0 0 0.54883,-0.38086 l 2.82813,-2.82812 3.53711,3.53515 -2.12305,2.1211 8.48633,1.41406 -1.41407,-8.48438 -2.12109,2.1211 -4.95117,-4.95117 a 2.0002,2.0002 0 0 0 -1.72656,-0.56055 z" id="path17802" style="fill:#fe93d3;fill-opacity:1;fill-rule:evenodd;stroke-width:2;stroke-linecap:round;stroke-linejoin:round;stroke-miterlimit:4.1"/>
<path d="m 407,323 h 3 c 0.554,0 1,0.446 1,1 v 11 c 0,0.554 -0.446,1 -1,1 h -3 c -0.554,0 -1,-0.446 -1,-1 v -11 c 0,-0.554 0.446,-1 1,-1 z" id="rect11074" style="fill:#0075d3;fill-opacity:1;fill-rule:evenodd;stroke:none;stroke-width:2;stroke-linecap:round;stroke-linejoin:round;stroke-miterlimit:4.1"/>
<path d="m 408,326 a 4,7 0 0 0 -2,0.9375 V 335 c 0,0.554 0.446,1 1,1 h 3 c 0.554,0 1,-0.446 1,-1 v -6.62891 A 4,7 0 0 0 408,326 Z" id="path17915" style="fill:#0588e2;fill-opacity:1;fill-rule:evenodd;stroke-width:2;stroke-linecap:round;stroke-linejoin:round;stroke-miterlimit:4.1"/>
<path d="m 407,322 c -1.0907,0 -2,0.9093 -2,2 v 11 c 0,1.0907 0.9093,2 2,2 h 3 c 1.0907,0 2,-0.9093 2,-2 v -7 a 1,1 0 0 0 -1,-1 1,1 0 0 0 -1,1 v 7 h -3 v -11 h 3 a 1,1 0 0 0 1,1 1,1 0 0 0 1,-1 c 0,-1.0907 -0.9093,-2 -2,-2 z" id="path23823" style="color:#000000;fill:#000000;fill-rule:evenodd;stroke-linecap:round;stroke-linejoin:round;stroke-miterlimit:4.1;-inkscape-stroke:none"/>
<path d="m 417,327 h 3 c 0.554,0 1,0.446 1,1 v 7 c 0,0.554 -0.446,1 -1,1 h -3 c -0.554,0 -1,-0.446 -1,-1 v -7 c 0,-0.554 0.446,-1 1,-1 z" id="rect11076" style="fill:#0075d3;fill-opacity:1;fill-rule:evenodd;stroke:none;stroke-width:2;stroke-linecap:round;stroke-linejoin:round;stroke-miterlimit:4.1"/>
<path d="m 418,330 a 4,7 0 0 0 -2,0.9375 V 335 c 0,0.554 0.446,1 1,1 h 3 c 0.554,0 1,-0.446 1,-1 v -2.62891 A 4,7 0 0 0 418,330 Z" id="ellipse17917" style="fill:#0588e2;fill-opacity:1;fill-rule:evenodd;stroke-width:2;stroke-linecap:round;stroke-linejoin:round;stroke-miterlimit:4.1"/>
<path d="m 417,326 c -1.0907,0 -2,0.9093 -2,2 v 7 c 0,1.0907 0.9093,2 2,2 h 3 c 1.0907,0 2,-0.9093 2,-2 v -3 a 1,1 0 0 0 -1,-1 1,1 0 0 0 -1,1 v 3 h -3 v -7 h 3 a 1,1 0 0 0 1,1 1,1 0 0 0 1,-1 c 0,-1.0907 -0.9093,-2 -2,-2 z" id="path23825" style="color:#000000;fill:#000000;fill-rule:evenodd;stroke-linecap:round;stroke-linejoin:round;stroke-miterlimit:4.1"/>
<path d="m 427,330 h 3 c 0.554,0 1,0.446 1,1 v 4 c 0,0.554 -0.446,1 -1,1 h -3 c -0.554,0 -1,-0.446 -1,-1 v -4 c 0,-0.554 0.446,-1 1,-1 z" id="rect11078" style="fill:#ffa221;fill-opacity:1;fill-rule:evenodd;stroke:none;stroke-width:2;stroke-linecap:round;stroke-linejoin:round;stroke-miterlimit:4.1"/>
<path d="m 428,332 a 4,7 0 0 0 -2,0.9375 V 335 c 0,0.554 0.446,1 1,1 h 3 c 0.554,0 1,-0.446 1,-1 v -0.62891 A 4,7 0 0 0 428,332 Z" id="ellipse17919" style="fill:#ffc343;fill-opacity:1;fill-rule:evenodd;stroke-width:2;stroke-linecap:round;stroke-linejoin:round;stroke-miterlimit:4.1"/>
<path d="m 427,329 c -1.0907,0 -2,0.9093 -2,2 v 4 c 0,1.0907 0.9093,2 2,2 h 3 c 1.0907,0 2,-0.9093 2,-2 a 1,1 0 0 0 -1,-1 1,1 0 0 0 -1,1 h -3 v -4 h 3 a 1,1 0 0 0 1,1 1,1 0 0 0 1,-1 c 0,-1.0907 -0.9093,-2 -2,-2 z" id="path23827" style="color:#000000;fill:#000000;fill-rule:evenodd;stroke-linecap:round;stroke-linejoin:round;stroke-miterlimit:4.1"/>
<path d="m 408.68945,307.75781 c -0.76986,0 -1.53949,0.2895 -2.12109,0.8711 a 1,1 0 0 0 0,1.41601 1,1 0 0 0 1.41406,0 c 0.3989,-0.3989 1.01516,-0.3989 1.41406,0 l 6.0586,6.0586 a 1.0001,1.0001 0 0 0 1.41406,0 l 2.43945,-2.43946 a 1,1 0 0 0 0,-1.41406 1,1 0 0 0 -1.41406,0 l -1.73242,1.73242 -5.35156,-5.35351 c -0.5816,-0.5816 -1.35124,-0.8711 -2.1211,-0.8711 z m -0.86328,3.95899 a 1,1 0 0 0 -0.70703,0.29297 1,1 0 0 0 0,1.41406 l 6.92188,6.92187 c 1.16322,1.163 3.07895,1.163 4.24218,0 l 2.1211,-2.12109 2.12109,2.12109 -1.41406,1.41407 a 1.0001,1.0001 0 0 0 0.54297,1.69335 l 8.48632,1.41407 a 1.0001,1.0001 0 0 0 1.1504,-1.15039 l -1.41407,-8.48633 a 1.0001,1.0001 0 0 0 -1.69336,-0.54102 l -1.41406,1.41407 -3.76562,-3.76563 a 1,1 0 0 0 -1.41407,0 1,1 0 0 0 0,1.41406 l 4.47266,4.47266 a 1.0001,1.0001 0 0 0 1.41406,0 l 0.74805,-0.74805 0.86328,5.1875 -5.1875,-0.86328 0.74805,-0.74805 a 1.0001,1.0001 0 0 0 0,-1.41406 l -3.53711,-3.53515 a 1.0001,1.0001 0 0 0 -1.41406,0 l -2.82813,2.82812 c -0.39896,0.39888 -1.01511,0.39888 -1.41406,0 l -6.92188,-6.92187 a 1,1 0 0 0 -0.70703,-0.29297 z" id="path23829" style="color:#000000;fill:#000000;fill-rule:evenodd;stroke-linecap:round;stroke-linejoin:round;stroke-miterlimit:4.1"/>
</g>
</svg>