<?xml version="1.0" ?>
<!-- Uploaded to: SVG Repo, www.svgrepo.com, Generator: SVG Repo Mixer Tools -->
<svg width="800px" height="800px" viewBox="0 0 64 64" id="svg5" version="1.1" xml:space="preserve" xmlns="http://www.w3.org/2000/svg" xmlns:svg="http://www.w3.org/2000/svg">
<defs id="defs2"/>
<g id="layer1" transform="translate(-192,-480)">
<path d="m 202,489 h 49 v 6 h -49 z" id="path61024" style="fill:#3e4f59;fill-opacity:1;fill-rule:evenodd;stroke-width:2;stroke-linecap:round;stroke-linejoin:round;stroke-miterlimit:4.1"/>
<path d="m 202,495 h 49 v 40 h -49 z" id="path61026" style="fill:#acbec2;fill-opacity:1;fill-rule:evenodd;stroke-width:2.00001;stroke-linecap:round;stroke-linejoin:round;stroke-miterlimit:4.1"/>
<path d="m 202,495 v 40 h 29.76953 a 28.484051,41.392605 35.599482 0 0 18.625,-40 z" id="path61028" style="fill:#e8edee;fill-opacity:1;fill-rule:evenodd;stroke:none;stroke-width:2.00002;stroke-linecap:round;stroke-linejoin:round;stroke-miterlimit:4.1"/>
<path d="m 204,488 c -1.64501,0 -3,1.355 -3,3 v 40 c 0,0.55229 0.44772,1 1,1 0.55229,0 1,-0.44771 1,-1 v -40 c 0,-0.56413 0.43587,-1 1,-1 h 45 c 0.56413,0 1,0.43587 1,1 v 3 h -42 c -0.55228,0 -1,0.44772 -1,1 0,0.55229 0.44772,1 1,1 h 42 v 37 c 0,0.56413 -0.43587,1 -1,1 h -49 c -0.55228,0 -1,0.44772 -1,1 0,0.55229 0.44772,1 1,1 h 49 c 1.64501,0 3,-1.35499 3,-3 0,-14 0,-28 0,-42 0,-1.645 -1.35499,-3 -3,-3 z" id="path61030" style="color:#000000;fill:#000000;fill-rule:evenodd;stroke-linecap:round;stroke-linejoin:round;stroke-miterlimit:4.1"/>
<path d="m 247,491 c -0.55228,0 -1,0.44772 -1,1 0,0.55229 0.44772,1 1,1 0.55229,0 1,-0.44771 1,-1 0,-0.55228 -0.44771,-1 -1,-1 z" id="path61032" style="color:#000000;fill:#ed7161;fill-opacity:1;fill-rule:evenodd;stroke-linecap:round;stroke-linejoin:round;stroke-miterlimit:4.1;-inkscape-stroke:none"/>
<path d="m 243,491 c -0.55228,0 -1,0.44772 -1,1 0,0.55229 0.44772,1 1,1 0.55229,0 1,-0.44771 1,-1 0,-0.55228 -0.44771,-1 -1,-1 z" id="path61034" style="color:#000000;fill:#ecba16;fill-opacity:1;fill-rule:evenodd;stroke-linecap:round;stroke-linejoin:round;stroke-miterlimit:4.1;-inkscape-stroke:none"/>
<path d="m 239,491 c -0.55228,0 -1,0.44772 -1,1 0,0.55229 0.44772,1 1,1 0.55229,0 1,-0.44771 1,-1 0,-0.55228 -0.44771,-1 -1,-1 z" id="path61036" style="color:#000000;fill:#42b05c;fill-opacity:1;fill-rule:evenodd;stroke-linecap:round;stroke-linejoin:round;stroke-miterlimit:4.1;-inkscape-stroke:none"/>
<path d="m 197,534 a 1,1 0 0 0 -1,1 1,1 0 0 0 1,1 1,1 0 0 0 1,-1 1,1 0 0 0 -1,-1 z" id="path61038" style="color:#000000;fill:#000000;fill-rule:evenodd;stroke-linecap:round;stroke-linejoin:round;stroke-miterlimit:4.1;-inkscape-stroke:none"/>
<path d="m 205,494 c -0.55228,0 -1,0.44772 -1,1 0,0.55229 0.44772,1 1,1 0.55229,0 1,-0.44771 1,-1 0,-0.55228 -0.44771,-1 -1,-1 z" id="path61040" style="color:#000000;fill:#000000;fill-rule:evenodd;stroke-linecap:round;stroke-linejoin:round;stroke-miterlimit:4.1;-inkscape-stroke:none"/>
<path d="m 240.57024,517.60039 -0.56841,-9.46979 -3.8637,-1.03527 -5.22715,7.91688 c 2.71965,2.84519 2.51524,5.95352 2.75909,9.02149 1.74516,-2.53502 3.12229,-5.32912 6.90017,-6.43331 z" id="path9446" style="fill:#0588e2;fill-opacity:1;fill-rule:evenodd;stroke:none;stroke-width:2;stroke-linecap:round;stroke-linejoin:round;stroke-miterlimit:4.1"/>
<path d="m 234.58789,509.44336 -3.67773,5.56836 c 2.71964,2.84519 2.51591,5.95352 2.75976,9.02148 1.12335,-1.63178 2.09551,-3.36865 3.65235,-4.69531 a 6.8051186,8.454114 0 0 0 0.39453,-2.78125 6.8051186,8.454114 0 0 0 -3.12891,-7.11328 z" id="path34182" style="fill:#0075d3;fill-opacity:1;fill-rule:evenodd;stroke:none;stroke-width:2;stroke-linecap:round;stroke-linejoin:round;stroke-miterlimit:4.1"/>
<path d="m 213,500 c -1.64501,0 -3,1.35499 -3,3 v 19 a 1,1 0 0 0 1,1 1,1 0 0 0 1,-1 v -19 c 0,-0.56413 0.43587,-1 1,-1 h 21 a 1,1 0 0 0 1,-1 1,1 0 0 0 -1,-1 z m 24.72852,0.30078 a 1,1 0 0 0 -1.00391,0.74024 1,1 0 0 0 0.70703,1.2246 l 3.86524,1.03516 a 1,1 0 0 0 1.2246,-0.70703 1,1 0 0 0 -0.70703,-1.22461 l -3.86523,-1.03516 a 1,1 0 0 0 -0.2207,-0.0332 z m -0.7754,2.89844 a 1,1 0 0 0 -1.0039,0.74023 1,1 0 0 0 0.70703,1.22461 l 3.86328,1.03516 a 1,1 0 0 0 1.22461,-0.70703 1,1 0 0 0 -0.70703,-1.22461 l -3.86328,-1.03516 a 1,1 0 0 0 -0.22071,-0.0332 z m -0.96874,2.9082 a 1.0001,1.0001 0 0 0 -0.68165,0.4375 l -5.22656,7.91602 a 1.0001,1.0001 0 0 0 0.11133,1.24218 c 2.35999,2.46893 2.24993,5.05095 2.46289,8.06446 -0.5998,0.9097 -1.50083,2.02151 -2.64648,2.8164 -1.19528,0.82933 -2.60462,1.33153 -4.39453,1.03321 a 1,1 0 0 0 -1.1504,0.82226 1,1 0 0 0 0.82227,1.15235 c 2.34049,0.39008 4.34984,-0.31515 5.86328,-1.36524 1.51344,-1.05008 2.57864,-2.42524 3.26758,-3.49609 a 1,1 0 0 0 0.0684,-0.125 1,1 0 0 0 0,-0.002 1,1 0 0 0 0.0137,-0.002 c 1.80045,-2.6153 2.95277,-5.0459 6.35742,-6.04101 a 1.0001,1.0001 0 0 0 0.7168,-1.01953 l -0.14844,-2.47071 a 1,1 0 0 0 -1.05859,-0.9375 1,1 0 0 0 -0.9375,1.0586 l 0.10742,1.79882 c -2.47943,0.96189 -3.93067,2.60434 -5.13281,4.32618 -0.18013,-2.09252 -0.61462,-4.24142 -2.28125,-6.31446 l 4.45898,-6.7539 0.26758,0.0723 -1.93945,7.24414 c -0.14286,0.5334 0.17366,1.08163 0.70703,1.22461 0.5334,0.14286 1.08163,-0.17366 1.22461,-0.70703 l 1.93945,-7.24414 0.27149,0.0723 0.0937,1.54687 a 1,1 0 0 0 1.05665,0.93945 1,1 0 0 0 0.93945,-1.05859 L 241,508.07031 a 1.0001,1.0001 0 0 0 -0.74023,-0.90625 l -3.86329,-1.03515 a 1.0001,1.0001 0 0 0 -0.4121,-0.0215 z m -16.53907,14.4961 c -2.00347,0 -3.96466,1.4134 -5.66601,2.70507 -1.70136,1.29169 -3.0293,2.57618 -3.0293,2.57618 a 1,1 0 0 0 -0.0234,1.41406 1,1 0 0 0 1.41406,0.0254 c 0,0 1.2581,-1.21552 2.84961,-2.42383 1.59154,-1.20831 3.63012,-2.29687 4.45508,-2.29687 1.1372,0 1.58205,0.31235 1.97461,0.82226 0.39256,0.50991 0.65788,1.33394 0.9043,2.24805 a 1,1 0 0 0 1.22656,0.70703 1,1 0 0 0 0.70508,-1.22656 c -0.2524,-0.93631 -0.53408,-2.01675 -1.25195,-2.94922 -0.71788,-0.93247 -1.94628,-1.60156 -3.5586,-1.60156 z" id="rect9443" style="color:#000000;fill:#000000;fill-rule:evenodd;stroke-linecap:round;stroke-linejoin:round;stroke-miterlimit:4.1;-inkscape-stroke:none"/>
</g>
</svg>